<svg width="26" height="23" viewBox="0 0 26 23" fill="none" xmlns="http://www.w3.org/2000/svg">
<path d="M24.5 12.5459C25.3284 12.5459 26 11.8744 26 11.0459C26 10.2175 25.3284 9.54593 24.5 9.54593L24.5 12.5459ZM0.439341 9.98527C-0.146446 10.5711 -0.146446 11.5208 0.43934 12.1066L9.98528 21.6525C10.5711 22.2383 11.5208 22.2383 12.1066 21.6525C12.6924 21.0667 12.6924 20.117 12.1066 19.5312L3.62132 11.0459L12.1066 2.56065C12.6924 1.97486 12.6924 1.02511 12.1066 0.439326C11.5208 -0.146461 10.5711 -0.146461 9.98528 0.439326L0.439341 9.98527ZM24.5 9.54593L1.5 9.54593L1.5 12.5459L24.5 12.5459L24.5 9.54593Z" fill="white"/>
</svg>
